<svg width="40" height="40" viewBox="0 0 40 40" fill="none" xmlns="http://www.w3.org/2000/svg">
<path d="M19.9832 2.58752C21.0045 2.58752 22.0042 2.73586 22.7576 3.01721V3.01819L31.075 6.13538H31.0759C33.2954 6.96215 35.0505 9.50773 35.0505 11.8668V24.2496C35.0505 25.3368 34.7063 26.5896 34.1238 27.7487C33.5778 28.8349 32.8404 29.8025 32.031 30.4557L31.8679 30.5826L24.7009 35.9323L24.6951 35.9371C23.4124 36.9262 21.7238 37.4332 19.9998 37.4332C18.277 37.4332 16.5847 36.9264 15.2644 35.9479H15.2634L8.09937 30.5992C7.22666 29.9485 6.42532 28.921 5.84253 27.7594C5.25969 26.5977 4.91675 25.3448 4.91675 24.2662V11.8668C4.91675 9.58136 6.56342 7.12051 8.68433 6.21741L8.89136 6.13538H8.89233L17.2087 3.01819C17.9622 2.73667 18.9615 2.58755 19.9832 2.58752ZM20.0007 4.08557C19.3019 4.08748 18.5815 4.17028 17.988 4.34924L17.7419 4.43127L17.741 4.43225L9.42456 7.54846H9.42358C8.59608 7.86005 7.85485 8.52257 7.32397 9.29065C6.7929 10.059 6.43335 10.99 6.43335 11.8834V24.2662C6.43335 25.1607 6.74393 26.1894 7.20093 27.1012C7.60063 27.8987 8.13724 28.6562 8.73901 29.1871L9.00073 29.401L16.1677 34.7506C17.2296 35.5445 18.6282 35.9253 20.0017 35.9254C21.2899 35.9254 22.603 35.5903 23.6433 34.8951L23.8474 34.7516L23.8494 34.7506L31.0154 29.401L31.0164 29.4C31.7311 28.864 32.3667 28.005 32.822 27.0944C33.2774 26.1837 33.5837 25.1597 33.5837 24.2662V11.8668C33.5837 10.9808 33.2233 10.054 32.6931 9.28674C32.1959 8.56731 31.5142 7.93799 30.7517 7.59827L30.5974 7.53381L30.5925 7.53186L22.2751 4.41467L22.2664 4.41174L22.0183 4.33264C21.4215 4.16209 20.7001 4.08367 20.0007 4.08557Z" fill="#FAFAFA" stroke="#FAFAFA"/>
<path d="M24.4038 14.77C24.6738 14.5002 25.1153 14.4831 25.4067 14.7192L25.4634 14.77C25.7335 15.0402 25.7498 15.4824 25.5132 15.7739L25.4634 15.8295L18.2964 22.9965C18.1451 23.1478 17.9573 23.2162 17.7661 23.2162C17.599 23.2162 17.4351 23.1636 17.2954 23.0493L17.2368 22.9965L14.5532 20.3129C14.2834 20.0429 14.2665 19.6015 14.5024 19.31L14.5532 19.2534C14.8233 18.9833 15.2656 18.9662 15.5571 19.2026L15.6128 19.2534L17.7661 21.4067L18.1206 21.0532L24.4038 14.77Z" fill="#FAFAFA" stroke="#FAFAFA"/>
</svg>
